<svg width="128" height="64" viewBox="0 0 128 64" fill="none" xmlns="http://www.w3.org/2000/svg">
<rect width="128" height="64" fill="black"></rect>
<path d="M39 13L42 13L42 14L44 14L44 15L45 15L45 16L46 16L46 17L47 17L47 18L48 18L48 19L49 19L49 20L50 20L50 21L51 21L51 24L52 24L52 28L53 28L53 31L52 31L52 35L51 35L51 38L50 38L50 39L49 39L49 40L48 40L48 41L47 41L47 42L46 42L46 43L45 43L45 44L44 44L44 45L42 45L42 46L39 46L39 47L31 47L31 46L27 46L27 45L25 45L25 44L24 44L24 43L23 43L23 42L22 42L22 41L21 41L21 40L20 40L20 39L19 39L19 36L18 36L18 32L17 32L17 27L18 27L18 23L19 23L19 20L20 20L20 19L21 19L21 18L22 18L22 17L23 17L23 16L24 16L24 15L25 15L25 14L27 14L27 13L31 13L31 12L39 12L39 13Z" fill="#D9D9D9"></path>
<path d="M88 13L85 13L85 14L83 14L83 15L82 15L82 16L81 16L81 17L80 17L80 18L79 18L79 19L78 19L78 20L77 20L77 21L76 21L76 24L75 24L75 28L74 28L74 31L75 31L75 35L76 35L76 38L77 38L77 39L78 39L78 40L79 40L79 41L80 41L80 42L81 42L81 43L82 43L82 44L83 44L83 45L85 45L85 46L88 46L88 47L96 47L96 46L100 46L100 45L102 45L102 44L103 44L103 43L104 43L104 42L105 42L105 41L106 41L106 40L107 40L107 39L108 39L108 36L109 36L109 32L110 32L110 27L109 27L109 23L108 23L108 20L107 20L107 19L106 19L106 18L105 18L105 17L104 17L104 16L103 16L103 15L102 15L102 14L100 14L100 13L96 13L96 12L88 12L88 13Z" fill="#D9D9D9"></path>
<path d="M39 17L39 18L43 18L43 19L45 19L45 20L46 20L46 21L47 21L47 22L48 22L48 23L49 23L49 24L50 24L50 28L51 28L51 31L50 31L50 35L49 35L49 36L48 36L48 37L47 37L47 38L46 38L46 39L45 39L45 40L43 40L43 41L39 41L39 42L38 42L38 41L35 41L35 40L32 40L32 39L31 39L31 38L30 38L30 37L29 37L29 36L28 36L28 32L27 32L27 27L28 27L28 23L29 23L29 22L30 22L30 21L31 21L31 20L32 20L32 19L35 19L35 18L38 18L38 17L39 17Z" fill="black"></path>
<path d="M88 17L88 18L84 18L84 19L82 19L82 20L81 20L81 21L80 21L80 22L79 22L79 23L78 23L78 24L77 24L77 28L76 28L76 31L77 31L77 35L78 35L78 36L79 36L79 37L80 37L80 38L81 38L81 39L82 39L82 40L84 40L84 41L88 41L88 42L89 42L89 41L92 41L92 40L95 40L95 39L96 39L96 38L97 38L97 37L98 37L98 36L99 36L99 32L100 32L100 27L99 27L99 23L98 23L98 22L97 22L97 21L96 21L96 20L95 20L95 19L92 19L92 18L89 18L89 17L88 17Z" fill="black"></path>
<rect x="10" y="10" width="48" height="17" fill="black"></rect>
<rect width="48" height="17" transform="matrix(-1 -8.74228e-08 -8.74228e-08 1 117 10)" fill="black"></rect>
<path d="M17 27L52 27L52 29L17 29L17 27Z" fill="#D9D9D9"></path>
<path d="M110 27L75 27L75 29L110 29L110 27Z" fill="#D9D9D9"></path>
<rect y="52" width="8" height="2" fill="#D9D9D9"></rect>
<rect x="2" y="51" width="4" height="1" fill="#D9D9D9"></rect>
<rect y="48" width="7" height="1" fill="#D9D9D9"></rect>
<rect x="1" y="46" width="6" height="1" fill="#D9D9D9"></rect>
<rect y="47" width="8" height="1" fill="#D9D9D9"></rect>
<rect width="8" height="2" transform="matrix(-1 0 0 1 127 52)" fill="#D9D9D9"></rect>
<rect width="4" height="1" transform="matrix(-1 0 0 1 125 51)" fill="#D9D9D9"></rect>
<rect width="7" height="1" transform="matrix(-1 0 0 1 127 48)" fill="#D9D9D9"></rect>
<rect width="6" height="1" transform="matrix(-1 0 0 1 126 46)" fill="#D9D9D9"></rect>
<rect width="8" height="1" transform="matrix(-1 0 0 1 127 47)" fill="#D9D9D9"></rect>
<rect x="61" y="38" width="5" height="1" fill="#D9D9D9"></rect>
<rect x="61" y="40" width="5" height="1" fill="#D9D9D9"></rect>
<rect x="61" y="44" width="5" height="1" fill="#D9D9D9"></rect>
<rect x="62" y="41" width="3" height="1" fill="#D9D9D9"></rect>
<rect x="60" y="45" width="3" height="1" fill="#D9D9D9"></rect>
<rect x="54" y="45" width="3" height="1" fill="#D9D9D9"></rect>
<rect x="54" y="45" width="3" height="1" fill="#D9D9D9"></rect>
<rect x="70" y="45" width="3" height="1" fill="#D9D9D9"></rect>
<rect x="70" y="44" width="3" height="1" fill="#D9D9D9"></rect>
<rect x="71" y="43" width="2" height="1" fill="#D9D9D9"></rect>
<rect x="54" y="44" width="3" height="1" fill="#D9D9D9"></rect>
<rect x="54" y="43" width="2" height="1" fill="#D9D9D9"></rect>
<rect x="55" y="46" width="8" height="1" fill="#D9D9D9"></rect>
<rect x="56" y="47" width="6" height="1" fill="#D9D9D9"></rect>
<rect x="65" y="47" width="6" height="1" fill="#D9D9D9"></rect>
<rect x="64" y="45" width="3" height="1" fill="#D9D9D9"></rect>
<rect x="64" y="46" width="8" height="1" fill="#D9D9D9"></rect>
<rect x="62" y="43" width="3" height="1" fill="#D9D9D9"></rect>
<rect x="60" y="39" width="7" height="1" fill="#D9D9D9"></rect>
<rect x="47" y="8" width="7" height="1" fill="#D9D9D9"></rect>
<rect x="46" y="9" width="9" height="1" fill="#D9D9D9"></rect>
<rect x="46" y="10" width="8" height="1" fill="#D9D9D9"></rect>
<rect x="48" y="11" width="5" height="1" fill="#D9D9D9"></rect>
<rect width="7" height="1" transform="matrix(-1 0 0 1 80 8)" fill="#D9D9D9"></rect>
<rect width="9" height="1" transform="matrix(-1 0 0 1 81 9)" fill="#D9D9D9"></rect>
<rect width="8" height="1" transform="matrix(-1 0 0 1 81 10)" fill="#D9D9D9"></rect>
<rect width="5" height="1" transform="matrix(-1 0 0 1 79 11)" fill="#D9D9D9"></rect>
<path d="M110 17H103V16H102V14H103V12H104V11H105V10H106V9H104V8H103V6H104V5H108V6H110V9H109V11H108V12H107V13H110V14H111V16H110V17Z" fill="#D9D9D9"></path>
<path d="M121 27H114V26H113V24H114V22H115V21H116V20H117V19H115V18H114V16H115V15H119V16H121V19H120V21H119V22H118V23H121V24H122V26H121V27Z" fill="#D9D9D9"></path>
</svg>